<?xml version="1.0" encoding="UTF-8" standalone="no"?><svg
   version="1.1"
   id="svg1"
   width="400"
   height="400"
   viewBox="0 0 400 400"
   xmlns="http://www.w3.org/2000/svg"
   xmlns:svg="http://www.w3.org/2000/svg"><defs
     id="defs1" /><path
     id="path1"
     style="opacity:1;fill:#000000;fill-opacity:1;stroke:#000000;stroke-width:3.77953;stroke-linecap:square;stroke-linejoin:round;stroke-opacity:1;paint-order:markers stroke fill"
     d="m 199.64648,22.847656 c -1.29856,-0.01703 -2.6353,0.334354 -3.77343,0.914063 -1.80843,0.921128 -3.05465,2.71318 -4.28125,4.330078 -2.46529,3.249729 -4.02206,7.097735 -6.06055,10.630859 -3.09911,5.371405 -5.50677,11.224103 -9.38086,16.066406 -3.1752,3.968749 -7.10505,7.323896 -11.1582,10.390626 -3.69504,2.795776 -7.76438,5.091589 -11.88281,7.214843 -4.11134,2.119588 -8.79025,3.087103 -12.7461,5.484375 -1.23787,0.750158 -2.74095,1.435287 -3.36719,2.740235 -0.92961,1.937128 1.38496,4.846979 -0.0488,6.447265 -0.91573,1.022079 -2.92975,-0.255681 -4.08789,0.480469 -0.92375,0.587159 -1.4126,1.742272 -1.73243,2.789063 -2.62082,8.577984 -0.58741,17.931152 -1.00976,26.890622 -0.35997,7.63605 -1.04269,15.25625 -1.29883,22.89649 -0.20741,6.18604 2.9773,13.2495 -0.19141,18.5664 -1.89597,3.18132 -6.70026,3.24019 -9.71679,5.38867 -3.77333,2.68752 -7.17743,5.90162 -10.34375,9.28321 -3.63717,3.88445 -7.17853,7.95784 -9.859379,12.55469 -1.869073,3.20491 -3.083985,6.76768 -4.234375,10.29492 -1.315559,4.03368 -2.56907,8.14358 -3.029297,12.36133 -0.528879,4.84691 -0.377691,9.79987 0.335938,14.62304 0.684397,4.6256 1.51935,9.40904 3.751953,13.51758 1.697522,3.12386 6.12496,4.55762 7.07227,7.98438 0.1391,0.50316 -0.0543,1.07279 -0.28907,1.53906 -2.15316,4.27657 -6.736531,6.82709 -9.765622,10.53515 -3.271104,4.00432 -6.754862,7.96484 -9.042969,12.60157 -2.298514,4.65782 -3.613575,9.79799 -4.521484,14.91211 -0.836573,4.71227 -1.113564,9.55909 -0.818359,14.33593 0.308637,4.99419 1.396168,9.93494 2.693359,14.76758 1.355578,5.05016 2.981296,10.07544 5.292969,14.76563 1.820773,3.6942 4.117142,7.17105 6.685547,10.39062 2.701091,3.38589 5.765763,6.51069 9.091799,9.28516 3.62674,3.02532 7.50959,5.82832 11.73633,7.93554 4.73308,2.35968 9.88134,3.84672 15.00781,5.14649 9.39275,2.38144 19.02401,3.88786 28.66992,4.81055 7.16878,0.68573 14.40537,0.89337 21.59766,0.52929 6.13355,-0.31049 12.26492,-1.06596 18.27929,-2.30859 6.09761,-1.25983 12.61966,-1.96312 17.94141,-5.19531 1.19229,-0.72415 3.23813,-1.67931 2.88672,-3.0293 -0.30023,-1.15335 -2.28109,-0.69475 -3.41602,-1.05859 -5.48507,-1.75843 -11.21281,-2.93619 -16.40234,-5.43555 -4.65593,-2.24237 -9.30303,-4.84397 -12.98828,-8.4668 -3.75491,-3.6913 -6.72038,-8.26823 -8.84961,-13.08398 -1.10082,-2.48977 -1.60087,-5.2325 -1.92383,-7.93555 -0.42801,-3.58221 2.54515,-8.26734 0,-10.82422 -4.92067,-4.94335 -14.02679,0.93078 -20.92578,-0.0957 -4.70153,-0.69953 -9.46088,-1.86278 -13.66016,-4.08984 -3.87605,-2.05564 -7.49619,-4.86445 -10.19922,-8.32032 -1.96641,-2.51408 -3.23451,-5.58263 -4.08789,-8.6582 -0.9005,-3.2454 -1.05856,-6.68703 -1.00976,-10.05469 0.0667,-4.60761 -2.46666,-11.91834 1.77929,-13.70898 1.03419,-0.43615 1.70348,1.49242 2.69336,2.02148 3.53768,1.89079 7.46306,3.01515 11.35352,3.99219 8.41945,2.11443 17.08264,3.28117 25.73437,3.99219 9.50876,0.78146 19.08467,0.57831 28.6211,0.28906 5.89658,-0.17885 11.79383,-0.55953 17.65234,-1.25195 4.47117,-0.52845 8.9418,-1.18091 13.32422,-2.21289 4.35924,-1.02652 8.65221,-2.3661 12.84375,-3.94336 3.372,-1.26887 6.6894,-2.71718 9.86133,-4.42578 2.89401,-1.55889 5.83679,-3.13977 8.32226,-5.29102 1.59904,-1.38401 2.05082,-4.46207 4.13672,-4.81055 2.47372,-0.41327 4.42975,2.37657 6.49414,3.80078 2.27145,1.56706 4.61803,3.12744 6.44532,5.19532 1.87386,2.12058 3.7516,4.47836 4.47265,7.21484 0.6174,2.34309 0.32,4.91789 -0.28711,7.26367 -0.57134,2.20756 -1.76965,4.24323 -3.08008,6.10938 -1.87722,2.67329 -4.26892,4.97625 -6.73437,7.11914 -2.36064,2.05179 -6.89089,2.40099 -7.64844,5.43555 -0.17368,0.69571 0.59855,1.30621 0.96289,1.92382 1.26546,2.14518 3.27275,3.85794 4.23242,6.15625 0.98753,2.36502 1.49876,4.99043 1.44336,7.55274 -0.0648,2.99786 -1.0676,5.92726 -2.06836,8.7539 -0.95019,2.68385 -2.21137,5.27227 -3.70312,7.69727 -2.45666,3.99355 -5.56805,7.55227 -8.5625,11.16016 -3.46632,4.17642 -12.47297,6.93535 -10.87109,12.12109 0.5165,1.67205 3.35414,1.12414 5.09961,1.25 5.1416,0.37073 10.3444,-0.44645 15.39257,-1.49023 7.53793,-1.55859 14.92272,-4.00469 21.98243,-7.07227 5.70774,-2.48012 11.2243,-5.49832 16.30664,-9.08984 3.34937,-2.36689 6.38902,-5.17903 9.23632,-8.13086 2.53138,-2.62431 4.99135,-5.37409 6.92579,-8.46485 1.84596,-2.9494 3.20395,-6.2008 4.37695,-9.47656 1.17867,-3.29159 2.20817,-6.68172 2.64648,-10.15039 0.55882,-4.42236 0.51964,-8.94996 -0.0488,-13.37109 -0.48357,-3.76078 -1.50073,-7.4675 -2.8379,-11.01563 -1.51476,-4.01934 -3.40985,-7.94091 -5.82031,-11.49609 -2.65203,-3.91146 -5.8594,-7.47715 -9.3789,-10.63086 -4.29368,-3.84743 -9.04862,-7.25703 -14.14258,-9.95703 -5.20988,-2.76144 -11.35051,-3.46713 -16.54688,-6.25391 -0.55685,-0.29864 -1.51681,-0.47601 -1.54101,-1.10742 -0.0305,-0.79597 1.31393,-0.93069 1.82812,-1.53906 1.34555,-1.59198 1.73888,-3.87668 3.17578,-5.38672 1.04537,-1.09859 2.66052,-1.49998 3.79883,-2.50196 1.79238,-1.57772 3.38952,-3.41752 4.66602,-5.43554 1.96081,-3.09984 3.65247,-6.47813 4.47461,-10.05274 0.85944,-3.73675 0.60168,-7.66792 0.38476,-11.49609 -0.16138,-2.84807 -0.55292,-5.70064 -1.25,-8.4668 -0.58749,-2.33128 -1.31688,-4.66554 -2.45508,-6.7832 -1.80668,-3.3614 -4.14997,-6.47085 -6.83007,-9.1875 -1.68694,-1.70995 -3.66101,-3.14762 -5.72461,-4.37695 -1.61545,-0.96236 -3.30775,-1.91507 -5.14649,-2.3086 -2.03828,-0.43624 -4.33983,0.82987 -6.25195,0 -1.55056,-0.67295 -2.19363,-2.58908 -3.46484,-3.70312 -2.17843,-1.90906 -4.55523,-3.614 -7.07032,-5.05078 -3.25981,-1.8622 -6.79641,-3.2085 -10.29492,-4.57032 -3.27923,-1.27646 -6.60225,-2.4664 -10.00391,-3.36718 -2.82703,-0.74861 -7.45146,1.00103 -8.61132,-1.6836 -1.3603,-3.14856 4.01326,-5.60869 5.48437,-8.70703 1.57455,-3.3162 2.52889,-6.90049 3.51172,-10.4375 1.25298,-4.50921 2.18077,-9.10649 3.0293,-13.70898 0.79349,-4.30394 0.89415,-8.73466 1.92382,-12.98829 0.38652,-1.59672 0.2975,-3.649223 1.5879,-4.666011 0.96121,-0.757398 2.43263,-0.354397 3.65625,-0.335937 7.6401,0.115246 15.13598,2.171492 22.75195,2.789062 7.62932,0.618656 15.29153,1.008566 22.94531,0.914066 6.21768,-0.0768 12.44244,-0.453487 18.61524,-1.203128 6.95328,-0.844424 14.0777,-1.37433 20.68359,-3.703125 2.7408,-0.966222 5.73588,-1.997476 7.64844,-4.185547 2.23799,-2.560374 3.17323,-6.157312 3.65625,-9.523438 0.44787,-3.121179 0.17038,-6.417928 -0.76953,-9.427734 -0.99359,-3.181724 -2.43996,-6.52785 -5.00196,-8.660156 -1.98798,-1.654554 -4.72634,-2.558903 -7.3125,-2.595703 -2.2917,-0.03261 -4.48523,1.101962 -6.54101,2.115234 -3.19544,1.574995 -5.89442,4.003096 -8.80274,6.060547 -5.0323,3.560024 -9.72466,7.618526 -14.96093,10.871094 -1.55357,0.965011 -3.17141,1.842168 -4.85743,2.550781 -2.01942,0.848737 -4.10643,1.587353 -6.2539,2.019531 -5.01663,1.009595 -10.18003,1.237658 -15.29688,1.298828 -5.54163,0.06625 -11.08067,-0.463425 -16.5957,-1.009765 -4.33259,-0.429203 -8.61026,-1.317073 -12.93945,-1.779297 -3.35785,-0.358515 -6.79887,-1.473713 -10.10157,-0.769531 -2.37167,0.505673 -4.67493,1.755031 -6.39648,3.46289 -1.50807,1.496077 -2.57893,3.515297 -3.07813,5.580078 -1.01404,4.194256 0.37277,8.624371 0.38477,12.939451 0.0185,6.64006 0.89122,13.41762 -0.48242,19.91407 -0.81496,3.85426 -2.6623,7.44675 -4.52149,10.91992 -2.65073,4.95184 -4.71753,10.86456 -9.3789,13.99804 -1.77986,1.19646 -4.28015,0.58569 -6.30274,1.29883 -2.44823,0.86322 -4.33842,3.34757 -6.92578,3.5586 -4.63444,0.37799 -8.70258,-3.44911 -13.27734,-4.28125 -6.58587,-1.19795 -13.38033,-1.41864 -20.0586,-0.96094 -5.22385,0.35802 -11.74049,6.59077 -15.43945,2.88476 -3.11239,-3.11832 1.76416,-8.63475 2.45313,-12.98632 0.82914,-5.23692 1.67757,-10.48819 2.01953,-15.7793 0.60082,-9.29647 6.20806,-20.95806 0.0488,-27.947267 -0.25642,-0.290957 -0.90714,0.15432 -1.1543,-0.144531 -0.31744,-0.383832 -0.11866,-1.04063 0.0957,-1.490234 0.12208,-0.256058 0.3621,-0.471563 0.625,-0.578126 1.79859,-0.729046 3.93626,0.321068 5.82031,-0.144531 5.36719,-1.326375 10.15923,-4.454581 14.86329,-7.359375 5.23062,-3.229957 10.02028,-7.149235 14.7207,-11.111328 5.81973,-4.905583 11.40613,-10.108905 16.64258,-15.632812 3.31915,-3.50136 7.18966,-6.741659 9.33203,-11.064454 0.88272,-1.781111 1.27323,-3.832628 1.29883,-5.820312 0.0558,-4.329726 -0.10586,-9.139382 -2.50196,-12.746094 -1.95638,-2.944829 -5.35271,-5.145462 -8.80273,-5.917968 -0.41547,-0.09303 -0.84449,-0.138855 -1.27735,-0.144532 z m 67.22461,152.880864 c 2.40461,-0.011 4.88293,0.82178 6.92774,2.20117 2.67217,1.8026 4.73732,4.77287 6.20117,7.86523 1.82568,3.85669 2.84477,8.32154 2.91406,12.68946 0.0629,3.9648 -0.67356,8.08625 -2.27929,11.61718 -1.48652,3.26878 -3.77988,6.22203 -6.51954,8.22071 -2.14662,1.56604 -4.75897,2.46653 -7.31445,2.62109 -1.8546,0.11218 -3.80699,-0.29602 -5.45898,-1.25 -2.98024,-1.721 -5.6074,-4.4809 -7.36719,-7.68555 -2.05863,-3.74886 -3.11663,-8.28822 -3.28711,-12.68945 -0.13007,-3.35784 0.63558,-6.77173 1.75,-9.89063 1.24939,-3.49666 2.87684,-7.05815 5.40625,-9.53125 2.21309,-2.16383 5.08429,-3.79354 8.00391,-4.11132 0.3391,-0.0369 0.67992,-0.0551 1.02343,-0.0566 z m -138.20898,7.40429 c 3.08609,-0.0125 6.26435,0.9386 8.88867,2.51367 3.42947,2.05832 6.08027,5.44746 7.95899,8.97852 2.34308,4.40382 3.65325,9.50267 3.74218,14.49023 0.0807,4.52728 -0.86497,9.23378 -2.92578,13.26563 -1.90781,3.73251 -4.8511,7.10645 -8.36719,9.38867 -2.75499,1.78821 -6.107,2.8157 -9.38671,2.99219 -2.38021,0.12809 -4.88764,-0.33842 -7.00782,-1.42774 -3.82485,-1.96515 -7.19655,-5.11611 -9.45507,-8.77539 -2.64207,-4.28069 -3.99997,-9.46461 -4.21876,-14.49023 -0.16692,-3.8342 0.81585,-7.7316 2.2461,-11.29297 1.60348,-3.99271 3.69125,-8.06081 6.9375,-10.88477 2.84029,-2.47079 6.52639,-4.33049 10.27344,-4.69335 0.4352,-0.0421 0.87358,-0.0627 1.31445,-0.0645 z" /><g
     id="g1"></g></svg>