<?xml version="1.0" encoding="UTF-8" standalone="no"?><svg
   version="1.1"
   id="svg1"
   width="240.9696"
   height="248.50961"
   viewBox="0 0 240.9696 248.50961"
   xmlns="http://www.w3.org/2000/svg"
   xmlns:svg="http://www.w3.org/2000/svg"><defs
     id="defs1" /><path
     id="path1"
     style="fill:#000000;fill-opacity:1;stroke:#000000;stroke-width:3.77953;stroke-linecap:square;stroke-linejoin:round;stroke-opacity:1;paint-order:markers stroke fill"
     d="m 144.34155,1.944714 c -2.94898,-0.088988 -5.89852,-0.07931 -8.83984,0.099609 -5.76678,0.3507907 -11.50669,1.2645116 -17.1543,2.4824219 -8.28372,1.7863902 -16.29695,4.6516352 -24.423817,7.0527341 -8.083797,2.388372 -16.259055,4.507031 -24.207036,7.314453 -6.911713,2.441386 -13.176738,6.886868 -20.375,8.271485 -2.551008,0.490697 -5.214269,-0.340715 -7.794922,-0.04297 -2.53515,0.292496 -5.858604,-0.215117 -7.443359,1.785156 -1.982691,2.50255 0.350862,6.409973 -0.04492,9.578125 -0.454211,3.635843 -1.170771,7.315671 -2.654297,10.666016 -1.944187,4.390687 -3.228357,12.393911 -8.011718,11.972656 -3.126521,-0.275342 -2.36014,-5.823662 -3.78711,-8.619141 -2.271167,-4.449286 -4.18199,-9.266415 -7.576172,-12.93164 -1.608367,-1.736803 -3.6006114,-3.26437 -5.8339844,-4.048828 -1.194068,-0.419409 -2.842984,-1.104531 -3.787109,-0.261719 -0.9753285,0.870667 -0.3073815,2.617396 -0.173829,3.917969 0.439014,4.27522 2.440195,8.26215 3.177735,12.496093 0.910732,5.228173 1.256435,10.547474 1.523437,15.847657 0.303748,6.029612 0.144771,12.074338 0.08789,18.111328 -0.0636,6.749886 -0.757196,13.501586 -0.480469,20.246101 0.197434,4.81193 0.861938,9.59712 1.525391,14.36718 0.706005,5.07599 1.203376,10.22274 2.6113284,15.1504 1.514818,5.30168 3.821103,10.36274 6.226563,15.32421 2.549047,5.25764 5.572405,10.28026 8.664062,15.23829 1.050015,1.68389 3.767434,2.97954 3.351562,4.91992 -0.157004,0.73255 -1.307898,0.7382 -1.916015,1.17578 -3.211065,2.31058 -5.904016,5.28721 -9.099609,7.61914 -3.883298,2.83377 -10.6753624,3.14438 -12.1894544,7.70703 -0.35737,1.07692 0.328693,2.47398 1.21875,3.17773 1.539142,1.21697 3.8780354,0.93892 5.8339854,0.78321 4.366214,-0.34759 8.420212,-2.42186 12.582031,-3.78711 4.405085,-1.44505 8.56265,-5.58326 13.105469,-4.6582 3.824478,0.77878 5.548052,5.51518 8.61914,7.92382 2.783919,2.18341 6.889294,2.92521 8.839844,5.87696 0.349899,0.52957 0.482127,1.25075 0.347656,1.87109 -1.640183,7.56644 -12.375711,11.34325 -13.322265,19.02734 -0.0893,0.72492 0.173637,1.64255 0.783203,2.04493 1.587779,1.04811 3.876045,0.31363 5.703125,-0.2168 2.660513,-0.77238 4.878368,-2.64319 7.183594,-4.17969 2.697788,-1.79816 5.151069,-3.93866 7.75,-5.87695 1.731144,-1.29109 3.067961,-3.71954 5.224609,-3.83203 2.29924,-0.11992 3.887358,2.48998 5.964844,3.48242 3.431638,1.63934 7.064772,2.82629 10.666015,4.04883 4.491091,1.52463 10.050006,0.9793 13.626956,4.09375 0.577906,0.50319 0.706156,1.36647 0.958976,2.08984 1.53409,4.38929 1.64655,9.21329 3.35156,13.53906 1.8701,4.7446 3.11328,10.67611 7.44532,13.36719 0.75289,0.4677 1.88463,0.56695 2.65625,0.13086 0.77441,-0.43767 1.10692,-1.4756 1.26172,-2.35156 0.63787,-3.60962 -1.52291,-10.62354 -1.56641,-10.88477 -0.0435,-0.26122 -2.25097,-8.80778 0.60937,-11.23242 3.41936,-2.89851 8.88455,1.35079 13.36524,1.48047 4.98254,0.14421 10.00213,-0.0571 14.93359,-0.7832 4.83343,-0.71164 9.58435,-1.99189 14.23633,-3.48438 5.46316,-1.75274 10.88108,-3.76708 15.97852,-6.40039 5.13939,-2.65498 10.08447,-5.76928 14.58593,-9.40234 4.51979,-3.64786 8.4147,-8.02326 12.32032,-12.32227 3.38984,-3.73128 6.72798,-7.5396 9.62109,-11.66797 2.09831,-2.99421 3.83275,-6.23238 5.57422,-9.44726 2.50703,-4.62817 5.14875,-9.22606 7.00781,-14.15039 1.1675,-3.09252 2.71807,-6.27587 2.57031,-9.57813 -0.10364,-2.31627 -1.2132,-4.53423 -2.39453,-6.5293 -1.31535,-2.22141 -3.13507,-4.1522 -5.09375,-5.83398 -4.29162,-3.68491 -9.36451,-6.3797 -14.32422,-9.09961 -5.82923,-3.19675 -11.90562,-5.95332 -18.06836,-8.44726 -6.36021,-2.57386 -12.89712,-4.70671 -19.46093,-6.70508 -6.82263,-2.07717 -13.72626,-3.89919 -20.67969,-5.48438 -4.29298,-0.97868 -8.64866,-1.66169 -12.97461,-2.48242 -5.39711,-1.02396 -10.94837,-1.42627 -16.19727,-3.046885 -4.52658,-1.39759 -8.82345,-3.500268 -13.01757,-5.70312 -3.490576,-1.833334 -7.307226,-3.400614 -10.056636,-6.226562 -1.79128,-1.84114 -3.266466,-4.166484 -3.875004,-6.66211 -0.354532,-1.453944 -0.125036,-3.027853 0.21875,-4.484375 0.429893,-1.821331 1.545406,-3.408671 2.263672,-5.136719 1.070572,-2.575668 2.256142,-5.118094 3.046872,-7.792968 0.86091,-2.912269 1.48102,-5.908831 1.82813,-8.925782 0.24555,-2.134549 0.6574,-4.349403 0.17578,-6.443359 -0.65619,-2.85293 -2.69575,-5.198037 -4.050782,-7.792969 -1.069684,-2.048478 -4.078917,-3.992989 -3.220704,-6.138672 1.42822,-3.570801 7.175556,-2.857613 10.927736,-3.701172 3.677646,-0.826803 7.479076,-0.956594 11.232416,-1.304687 4.38899,-0.407045 8.78457,-1.009396 13.19141,-0.916016 3.51859,0.07456 7.05235,0.440812 10.49414,1.175782 5.36365,1.145372 10.58559,2.955885 15.67187,5.007812 7.09634,2.862835 14.16412,5.995592 20.59375,10.144531 4.18435,2.700096 7.84921,6.143782 11.53711,9.490235 3.99734,3.627244 7.83501,7.443804 11.45117,11.451172 2.61932,2.902685 3.49449,9.273746 7.40039,9.099609 0.69967,-0.03119 1.04824,-1.053533 1.17579,-1.742188 0.29298,-1.581888 -0.41391,-3.242316 -1.0879,-4.703124 -1.51267,-3.278644 -4.18928,-5.886233 -6.44335,-8.707032 -2.94206,-3.681769 -5.92152,-7.353095 -9.23047,-10.708984 -3.36356,-3.411279 -6.97166,-6.594929 -10.75391,-9.535156 -4.26474,-3.3153 -8.68348,-6.484711 -13.41016,-9.09961 -5.77123,-3.192765 -11.83707,-5.933409 -18.11132,-7.966797 -5.23959,-1.698071 -10.70981,-2.638533 -16.15235,-3.484375 -4.63893,-0.72095 -13.57325,3.323939 -14.01758,-1.349609 -0.31207,-3.282438 6.26101,-2.11894 9.49024,-2.785156 3.52234,-0.726685 7.12908,-0.982309 10.71094,-1.306641 5.12548,-0.464105 10.26619,-0.987842 15.41211,-0.914062 5.28791,0.07582 10.59242,0.48677 15.80273,1.392578 3.66568,0.637276 7.20235,1.876862 10.79883,2.830078 5.85282,1.551239 11.88624,2.548776 17.54492,4.703125 5.88958,2.242256 11.44658,5.317171 16.89258,8.488281 3.9966,2.327153 7.83353,4.937191 11.53711,7.707031 4.38965,3.282942 7.73501,8.062171 12.62695,10.535157 1.46697,0.741586 3.85078,2.525439 4.78906,1.175781 0.81106,-1.166664 -1.5028,-2.419165 -2.39453,-3.525391 -3.60766,-4.47542 -7.57181,-8.697918 -11.88672,-12.496094 C 219.3822,27.434502 213.66441,23.233572 207.64234,19.589244 201.71196,16.000403 195.39222,13.041839 188.9646,10.446666 183.13859,8.0943955 177.16135,6.0164965 171.0271,4.6576046 165.17305,3.3607842 159.15751,2.8739747 153.17749,2.4369015 150.23858,2.2220991 147.29054,2.0337024 144.34155,1.944714 Z M 70.605229,35.132215 C 78.764135,35.359087 87.417512,45.043558 87.13062,53.200574 86.850625,61.161505 77.767716,69.557203 69.802495,69.657605 61.747366,69.75914 52.025789,61.516457 51.864995,53.462293 51.69059,44.726351 61.870923,34.889343 70.605229,35.132215 Z" /></svg>