<?xml version="1.0" encoding="UTF-8" standalone="no"?><svg
   version="1.1"
   id="svg1"
   width="256"
   height="256"
   viewBox="0 0 256 256"
   xmlns="http://www.w3.org/2000/svg"
   xmlns:svg="http://www.w3.org/2000/svg"><defs
     id="defs1" /><sodipodi:namedview
     id="namedview1"
     pagecolor="#ffffff"
     bordercolor="#000000"
     borderopacity="0.25"
     showgrid="false" /><path
     id="path1"
     style="fill:#ffffff;stroke:#ffffff;stroke-width:3.77953;stroke-linecap:square;stroke-linejoin:round;paint-order:markers stroke fill;fill-opacity:1;stroke-opacity:1"
     d="M 152.20898 6.6484375 C 149.26 6.5594491 146.31046 6.5691277 143.36914 6.7480469 C 137.60236 7.0988376 131.86245 8.0125585 126.21484 9.2304688 C 117.93112 11.016859 109.91789 13.882104 101.79102 16.283203 C 93.707223 18.671575 85.531965 20.790234 77.583984 23.597656 C 70.672271 26.039042 64.407246 30.484524 57.208984 31.869141 C 54.657976 32.359838 51.994715 31.528426 49.414062 31.826172 C 46.878912 32.118668 43.555458 31.611055 41.970703 33.611328 C 39.988012 36.113878 42.321565 40.021301 41.925781 43.189453 C 41.47157 46.825296 40.75501 50.505124 39.271484 53.855469 C 37.327297 58.246156 36.043127 66.24938 31.259766 65.828125 C 28.133245 65.552783 28.899626 60.004463 27.472656 57.208984 C 25.201489 52.759698 23.290666 47.942569 19.896484 44.277344 C 18.288117 42.540541 16.295873 41.012974 14.0625 40.228516 C 12.868432 39.809107 11.219516 39.123985 10.275391 39.966797 C 9.3000625 40.837464 9.9680095 42.584193 10.101562 43.884766 C 10.540576 48.159986 12.541757 52.146916 13.279297 56.380859 C 14.190029 61.609032 14.535732 66.928333 14.802734 72.228516 C 15.106482 78.258128 14.947505 84.302854 14.890625 90.339844 C 14.827027 97.08973 14.133429 103.84143 14.410156 110.58594 C 14.60759 115.39787 15.272094 120.18306 15.935547 124.95312 C 16.641552 130.02911 17.138923 135.17586 18.546875 140.10352 C 20.061693 145.4052 22.367978 150.46626 24.773438 155.42773 C 27.322485 160.68537 30.345843 165.70799 33.4375 170.66602 C 34.487515 172.34991 37.204934 173.64556 36.789062 175.58594 C 36.632058 176.31849 35.481164 176.32414 34.873047 176.76172 C 31.661982 179.0723 28.969031 182.04893 25.773438 184.38086 C 21.89014 187.21463 15.098076 187.52524 13.583984 192.08789 C 13.226614 193.16481 13.912677 194.56187 14.802734 195.26562 C 16.341876 196.48259 18.680769 196.20454 20.636719 196.04883 C 25.002933 195.70124 29.056931 193.62697 33.21875 192.26172 C 37.623835 190.81667 41.7814 186.67846 46.324219 187.60352 C 50.148697 188.3823 51.872271 193.1187 54.943359 195.52734 C 57.727278 197.71075 61.832653 198.45255 63.783203 201.4043 C 64.133102 201.93387 64.26533 202.65505 64.130859 203.27539 C 62.490676 210.84183 51.755148 214.61864 50.808594 222.30273 C 50.719296 223.02765 50.982231 223.94528 51.591797 224.34766 C 53.179576 225.39577 55.467842 224.66129 57.294922 224.13086 C 59.955435 223.35848 62.17329 221.48767 64.478516 219.95117 C 67.176304 218.15301 69.629585 216.01251 72.228516 214.07422 C 73.95966 212.78313 75.296477 210.35468 77.453125 210.24219 C 79.752365 210.12227 81.340483 212.73217 83.417969 213.72461 C 86.849607 215.36395 90.482741 216.5509 94.083984 217.77344 C 98.575075 219.29807 104.13399 218.75274 107.71094 221.86719 C 108.28885 222.37038 108.4171 223.23366 108.66992 223.95703 C 110.20401 228.34632 110.31647 233.17032 112.02148 237.49609 C 113.89158 242.24069 115.13476 248.1722 119.4668 250.86328 C 120.21969 251.33098 121.35143 251.43023 122.12305 250.99414 C 122.89746 250.55647 123.22997 249.51854 123.38477 248.64258 C 124.02264 245.03296 121.86186 238.01904 121.81836 237.75781 C 121.77482 237.49659 119.56739 228.95003 122.42773 226.52539 C 125.84709 223.62688 131.31228 227.87618 135.79297 228.00586 C 140.77551 228.15007 145.7951 227.94873 150.72656 227.22266 C 155.55999 226.51102 160.31091 225.23077 164.96289 223.73828 C 170.42605 221.98554 175.84397 219.9712 180.94141 217.33789 C 186.0808 214.68291 191.02588 211.56861 195.52734 207.93555 C 200.04713 204.28769 203.94204 199.91229 207.84766 195.61328 C 211.2375 191.882 214.57564 188.07368 217.46875 183.94531 C 219.56706 180.9511 221.3015 177.71293 223.04297 174.49805 C 225.55 169.86988 228.19172 165.27199 230.05078 160.34766 C 231.21828 157.25514 232.76885 154.07179 232.62109 150.76953 C 232.51745 148.45326 231.40789 146.2353 230.22656 144.24023 C 228.91121 142.01882 227.09149 140.08803 225.13281 138.40625 C 220.84119 134.72134 215.7683 132.02655 210.80859 129.30664 C 204.97936 126.10989 198.90297 123.35332 192.74023 120.85938 C 186.38002 118.28552 179.84311 116.15267 173.2793 114.1543 C 166.45667 112.07713 159.55304 110.25511 152.59961 108.66992 C 148.30663 107.69124 143.95095 107.00823 139.625 106.1875 C 134.22789 105.16354 128.67663 104.76123 123.42773 103.14062 C 118.90115 101.74303 114.60428 99.640352 110.41016 97.4375 C 106.91958 95.604166 103.10293 94.036886 100.35352 91.210938 C 98.56224 89.369798 97.087054 87.044454 96.478516 84.548828 C 96.123984 83.094884 96.35348 81.520975 96.697266 80.064453 C 97.127159 78.243122 98.242672 76.655782 98.960938 74.927734 C 100.03151 72.352066 101.21708 69.80964 102.00781 67.134766 C 102.86872 64.222497 103.48883 61.225935 103.83594 58.208984 C 104.08149 56.074435 104.49334 53.859581 104.01172 51.765625 C 103.35553 48.912695 101.31597 46.567588 99.960938 43.972656 C 98.891254 41.924178 95.882021 39.979667 96.740234 37.833984 C 98.168454 34.263183 103.91579 34.976371 107.66797 34.132812 C 111.34562 33.306009 115.14705 33.176218 118.90039 32.828125 C 123.28938 32.42108 127.68496 31.818729 132.0918 31.912109 C 135.61039 31.986665 139.14415 32.352921 142.58594 33.087891 C 147.94959 34.233263 153.17153 36.043776 158.25781 38.095703 C 165.35415 40.958538 172.42193 44.091295 178.85156 48.240234 C 183.03591 50.94033 186.70077 54.384016 190.38867 57.730469 C 194.38601 61.357713 198.22368 65.174273 201.83984 69.181641 C 204.45916 72.084326 205.33433 78.455387 209.24023 78.28125 C 209.9399 78.250057 210.28847 77.227717 210.41602 76.539062 C 210.709 74.957174 210.00211 73.296746 209.32812 71.835938 C 207.81545 68.557294 205.13884 65.949705 202.88477 63.128906 C 199.94271 59.447137 196.96325 55.775811 193.6543 52.419922 C 190.29074 49.008643 186.68264 45.824993 182.90039 42.884766 C 178.63565 39.569466 174.21691 36.400055 169.49023 33.785156 C 163.719 30.592391 157.65316 27.851747 151.37891 25.818359 C 146.13932 24.120288 140.6691 23.179826 135.22656 22.333984 C 130.58763 21.613034 121.65331 25.657923 121.20898 20.984375 C 120.89691 17.701937 127.46999 18.865435 130.69922 18.199219 C 134.22156 17.472534 137.8283 17.21691 141.41016 16.892578 C 146.53564 16.428473 151.67635 15.904736 156.82227 15.978516 C 162.11018 16.054335 167.41469 16.465286 172.625 17.371094 C 176.29068 18.00837 179.82735 19.247956 183.42383 20.201172 C 189.27665 21.752411 195.31007 22.749948 200.96875 24.904297 C 206.85833 27.146553 212.41533 30.221468 217.86133 33.392578 C 221.85793 35.719731 225.69486 38.329769 229.39844 41.099609 C 233.78809 44.382551 237.13345 49.16178 242.02539 51.634766 C 243.49236 52.376352 245.87617 54.160205 246.81445 52.810547 C 247.62551 51.643883 245.31165 50.391382 244.41992 49.285156 C 240.81226 44.809736 236.84811 40.587238 232.5332 36.789062 C 227.24963 32.138227 221.53184 27.937297 215.50977 24.292969 C 209.57939 20.704128 203.25965 17.745564 196.83203 15.150391 C 191.00602 12.798119 185.02878 10.72022 178.89453 9.3613281 C 173.04048 8.0645077 167.02494 7.5776982 161.04492 7.140625 C 158.10601 6.9258226 155.15797 6.7374259 152.20898 6.6484375 z M 78.472656 39.835938 C 86.631562 40.06281 95.284939 49.747281 94.998047 57.904297 C 94.718052 65.865228 85.635143 74.260926 77.669922 74.361328 C 69.614793 74.462863 59.893216 66.22018 59.732422 58.166016 C 59.558017 49.430074 69.73835 39.593066 78.472656 39.835938 z " /><g
     id="g1" /></svg>