<?xml version="1.0" encoding="UTF-8" standalone="no"?><svg
   version="1.1"
   id="svg1"
   width="400"
   height="400"
   viewBox="0 0 400 400"
   xmlns="http://www.w3.org/2000/svg"
   xmlns:svg="http://www.w3.org/2000/svg"><defs
     id="defs1" /><path
     id="path1"
     style="opacity:1;fill:#ffffff;fill-opacity:1;stroke:#ffffff;stroke-width:3.77953;stroke-linecap:square;stroke-linejoin:round;stroke-opacity:1;paint-order:markers stroke fill"
     d="M 327.28906 61.042969 C 324.99736 61.010359 322.80383 62.144931 320.74805 63.158203 C 317.55261 64.733198 314.85363 67.161299 311.94531 69.21875 C 306.91301 72.778774 302.22062 76.837276 296.98438 80.089844 C 295.43081 81.054855 293.81297 81.932012 292.12695 82.640625 C 290.10753 83.489362 288.02052 84.227978 285.87305 84.660156 C 280.85642 85.669751 275.69302 85.897814 270.57617 85.958984 C 265.03454 86.025234 259.4955 85.495559 253.98047 84.949219 C 249.64788 84.520016 245.37021 83.632146 241.04102 83.169922 C 237.68317 82.811407 234.24215 81.696209 230.93945 82.400391 C 228.56778 82.906064 226.26452 84.155422 224.54297 85.863281 C 223.0349 87.359358 221.96404 89.378578 221.46484 91.443359 C 220.4508 95.637615 221.83761 100.06773 221.84961 104.38281 C 221.86811 111.02287 222.74083 117.80041 221.36719 124.29688 C 220.55223 128.15114 218.70489 131.74363 216.8457 135.2168 C 214.94751 138.76282 213.34743 142.80096 210.88086 145.95898 L 210.88086 273.20312 C 211.3939 273.14741 211.90764 273.08984 212.41992 273.0293 C 216.89109 272.50085 221.36172 271.84839 225.74414 270.81641 C 230.10338 269.78989 234.39635 268.45031 238.58789 266.87305 C 241.95989 265.60418 245.27729 264.15587 248.44922 262.44727 C 251.34323 260.88838 254.28601 259.3075 256.77148 257.15625 C 258.37052 255.77224 258.8223 252.69418 260.9082 252.3457 C 263.38192 251.93243 265.33795 254.72227 267.40234 256.14648 C 269.67379 257.71354 272.02037 259.27392 273.84766 261.3418 C 275.72152 263.46238 277.59926 265.82016 278.32031 268.55664 C 278.93771 270.89973 278.64031 273.47453 278.0332 275.82031 C 277.46186 278.02787 276.26355 280.06354 274.95312 281.92969 C 273.0759 284.60298 270.6842 286.90594 268.21875 289.04883 C 265.85811 291.10062 261.32786 291.44982 260.57031 294.48438 C 260.39663 295.18009 261.16886 295.79059 261.5332 296.4082 C 262.79866 298.55338 264.80595 300.26614 265.76562 302.56445 C 266.75315 304.92947 267.26438 307.55488 267.20898 310.11719 C 267.14418 313.11505 266.14139 316.04445 265.14062 318.87109 C 264.19043 321.55494 262.92925 324.14336 261.4375 326.56836 C 258.98084 330.56191 255.86945 334.12063 252.875 337.72852 C 249.40868 341.90494 240.40203 344.66387 242.00391 349.84961 C 242.52041 351.52166 245.35805 350.97375 247.10352 351.09961 C 252.24512 351.47034 257.44792 350.65312 262.49609 349.60938 C 270.03402 348.05079 277.41881 345.60469 284.47852 342.53711 C 290.18626 340.05699 295.70282 337.03879 300.78516 333.44727 C 304.13453 331.08038 307.17418 328.26824 310.02148 325.31641 C 312.55286 322.6921 315.01283 319.94232 316.94727 316.85156 C 318.79323 313.90216 320.15122 310.65076 321.32422 307.375 C 322.50289 304.08341 323.53239 300.69328 323.9707 297.22461 C 324.52952 292.80225 324.49027 288.27465 323.92188 283.85352 C 323.43831 280.09274 322.42115 276.38602 321.08398 272.83789 C 319.56922 268.81855 317.67413 264.89698 315.26367 261.3418 C 312.61164 257.43034 309.40427 253.86465 305.88477 250.71094 C 301.59109 246.86351 296.83615 243.45391 291.74219 240.75391 C 286.53231 237.99247 280.39168 237.28678 275.19531 234.5 C 274.63846 234.20136 273.6785 234.02399 273.6543 233.39258 C 273.6238 232.59661 274.96823 232.46189 275.48242 231.85352 C 276.82797 230.26154 277.2213 227.97684 278.6582 226.4668 C 279.70357 225.36821 281.31872 224.96682 282.45703 223.96484 C 284.24941 222.38712 285.84655 220.54732 287.12305 218.5293 C 289.08386 215.42946 290.77552 212.05117 291.59766 208.47656 C 292.4571 204.73981 292.19934 200.80864 291.98242 196.98047 C 291.82104 194.1324 291.4295 191.27983 290.73242 188.51367 C 290.14493 186.18239 289.41554 183.84813 288.27734 181.73047 C 286.47066 178.36907 284.12737 175.25962 281.44727 172.54297 C 279.76033 170.83302 277.78626 169.39535 275.72266 168.16602 C 274.10721 167.20366 272.41491 166.25095 270.57617 165.85742 C 268.53789 165.42118 266.23634 166.68729 264.32422 165.85742 C 262.77366 165.18447 262.13059 163.26834 260.85938 162.1543 C 258.68095 160.24524 256.30415 158.5403 253.78906 157.10352 C 250.52925 155.24132 246.99265 153.89502 243.49414 152.5332 C 240.21491 151.25674 236.89189 150.0668 233.49023 149.16602 C 230.6632 148.41741 226.03877 150.16705 224.87891 147.48242 C 223.51861 144.33386 228.89217 141.87373 230.36328 138.77539 C 231.93783 135.45919 232.89217 131.8749 233.875 128.33789 C 235.12798 123.82868 236.05577 119.2314 236.9043 114.62891 C 237.69779 110.32497 237.79847 105.89427 238.82812 101.64062 C 239.21464 100.0439 239.12562 97.991397 240.41602 96.974609 C 241.37723 96.217211 242.84865 96.620212 244.07227 96.638672 C 251.71237 96.753918 259.20825 98.810164 266.82422 99.427734 C 274.45354 100.04639 282.11575 100.4363 289.76953 100.3418 C 295.98721 100.265 302.21197 99.888313 308.38477 99.138672 C 315.33805 98.294248 322.46247 97.764342 329.06836 95.435547 C 331.80916 94.469325 334.80424 93.438071 336.7168 91.25 C 338.95479 88.689626 339.89003 85.092689 340.37305 81.726562 C 340.82092 78.605384 340.54343 75.308634 339.60352 72.298828 C 338.60993 69.117104 337.16356 65.770978 334.60156 63.638672 C 332.61358 61.984118 329.87522 61.079769 327.28906 61.042969 z M 266.87109 175.72852 C 269.2757 175.71752 271.75402 176.5503 273.79883 177.92969 C 276.471 179.73229 278.53615 182.70256 280 185.79492 C 281.82568 189.65161 282.84477 194.11642 282.91406 198.48438 C 282.97696 202.44917 282.2405 206.57063 280.63477 210.10156 C 279.14825 213.37034 276.85489 216.32359 274.11523 218.32227 C 271.96861 219.88831 269.35626 220.7888 266.80078 220.94336 C 264.94618 221.05554 262.99379 220.64734 261.3418 219.69336 C 258.36156 217.97236 255.7344 215.21246 253.97461 212.00781 C 251.91598 208.25895 250.85798 203.71959 250.6875 199.31836 C 250.55743 195.96052 251.32308 192.54663 252.4375 189.42773 C 253.68689 185.93107 255.31434 182.36958 257.84375 179.89648 C 260.05684 177.73265 262.92804 176.10294 265.84766 175.78516 C 266.18676 175.74826 266.52758 175.73002 266.87109 175.72852 z " /><g
     id="g1"></g><g
     id="g3"
     transform="matrix(0.97819802,-0.43546523,0.37598895,1.0250388,45.964626,92.856712)"
     style="fill:#ffffff;fill-opacity:1;stroke:#ffffff;stroke-opacity:1"><path
       id="path1-8"
       style="fill:#ffffff;fill-opacity:1;stroke:#ffffff;stroke-width:3.77953;stroke-linecap:square;stroke-linejoin:round;stroke-opacity:1;paint-order:markers stroke fill"
       d="M 153.32686 2.4481623 C 153.27701 2.4445112 153.22755 2.4398846 153.1777 2.4362411 C 150.23879 2.2214387 147.29079 2.0335615 144.3418 1.9445731 C 141.39282 1.8555851 138.44365 1.8650565 135.50233 2.0439755 C 129.73555 2.3947662 123.99534 3.3073739 118.34773 4.5252842 C 110.06401 6.3116744 102.05186 9.1775591 93.92499 11.578658 C 85.841193 13.96703 77.665391 16.085597 69.71741 18.893019 C 62.805697 21.334405 56.540981 25.780374 49.342719 27.164991 C 46.791711 27.655688 44.129142 26.823828 41.548489 27.121572 C 39.013339 27.414068 35.688262 26.906826 34.103507 28.907099 C 32.120816 31.409649 34.455359 35.317863 34.059577 38.486015 C 33.605366 42.121858 32.889306 45.800881 31.40578 49.151226 C 29.461593 53.541913 28.176856 61.545342 23.393495 61.124087 C 20.266974 60.848745 21.033215 55.300611 19.606245 52.505132 C 17.335078 48.055847 15.424247 43.237974 12.030065 39.572749 C 10.421698 37.835946 8.4298653 36.30888 6.1964923 35.524422 C 5.0024243 35.105013 3.3537016 34.419951 2.4095766 35.262763 C 1.4342481 36.13343 2.101887 37.880057 2.2354395 39.18063 C 2.6744535 43.45585 4.6752617 47.443201 5.4128017 51.677144 C 6.3235337 56.905317 6.66995 62.223964 6.936952 67.524147 C 7.2407 73.553759 7.080496 79.598747 7.023615 85.635737 C 6.960015 92.385623 6.2670774 99.136307 6.5438044 105.88082 C 6.7412384 110.69275 7.4056009 115.47963 8.0690539 120.24969 C 8.7750589 125.32568 9.2717539 130.47211 10.679706 135.39977 C 12.194524 140.70145 14.501779 145.76257 16.907239 150.72404 C 19.456286 155.98168 22.47875 161.00271 25.570407 165.96074 C 26.620422 167.64463 29.338233 168.94081 28.922361 170.88119 C 28.765357 171.61374 27.615087 171.61915 27.00697 172.05673 C 23.795905 174.36731 21.102115 177.34452 17.906522 179.67645 C 14.023224 182.51022 7.2313553 182.82179 5.7172633 187.38444 C 5.3598933 188.46136 6.0457388 189.85831 6.9357958 190.56206 C 8.4749378 191.77903 10.814625 191.50073 12.770575 191.34502 C 17.136789 190.99743 21.190029 188.92249 25.351848 187.55724 C 29.756933 186.11219 33.914736 181.97349 38.457555 182.89855 C 42.282033 183.67733 44.005228 188.41381 47.076316 190.82245 C 49.860235 193.00586 53.965806 193.74883 55.916356 196.70058 C 56.266255 197.23015 56.398239 197.95033 56.263768 198.57067 C 54.623585 206.13711 43.888899 209.91383 42.942345 217.59792 C 42.853045 218.32284 43.115867 219.24119 43.725433 219.64357 C 45.313212 220.69168 47.601946 219.95804 49.429026 219.42761 C 52.089539 218.65523 54.307546 216.78301 56.612772 215.24651 C 59.31056 213.44835 61.763434 211.30819 64.362365 209.3699 C 66.093509 208.07881 67.430347 205.65035 69.586995 205.53786 C 71.384058 205.44414 72.746576 207.01893 74.248045 208.1849 L 116.22266 98.980931 C 116.00848 98.795772 115.78836 98.613901 115.5612 98.436976 C 111.79176 95.501109 106.73718 94.935965 102.54306 92.733113 C 99.052491 90.899779 95.236752 89.332152 92.487342 86.506204 C 90.696062 84.665064 89.221017 82.340626 88.612479 79.845 C 88.257947 78.391056 88.486785 76.817365 88.830571 75.360843 C 89.260464 73.539512 90.376462 71.951533 91.094728 70.223485 C 92.1653 67.647817 93.351083 65.105918 94.141813 62.431044 C 95.002723 59.518775 95.622258 56.522015 95.969368 53.505064 C 96.214918 51.370515 96.627498 49.15558 96.145878 47.061624 C 95.489688 44.208694 93.45025 41.863162 92.095218 39.26823 C 91.025534 37.219752 88.01554 35.276089 88.873753 33.130406 C 90.301973 29.559605 96.048495 30.272213 99.800675 29.428654 C 103.47832 28.601851 107.28064 28.472597 111.03398 28.124504 C 115.42297 27.717459 119.81792 27.114605 124.22476 27.207985 C 127.74335 27.282545 131.27696 27.648126 134.71875 28.383096 C 137.36011 28.947141 139.96719 29.673372 142.54093 30.509576 L 145.84747 21.907046 C 145.07247 21.632245 144.29455 21.366742 143.51293 21.113431 C 138.27334 19.41536 132.80197 18.475115 127.35943 17.629273 C 122.7205 16.908323 113.78678 20.953404 113.34245 16.279856 C 113.03038 12.997418 119.60385 14.160381 122.83308 13.494165 C 126.35542 12.76748 129.9618 12.513308 133.54366 12.188976 C 138.66914 11.724871 143.80987 11.201093 148.95579 11.274873 C 149.27958 11.279516 149.60323 11.285922 149.92714 11.293109 L 153.32686 2.4481623 z M 75.184758 36.184647 C 81.69503 38.93681 87.364939 46.571861 87.131839 53.199437 C 86.851844 61.160368 77.767697 69.556637 69.802476 69.657039 C 61.747347 69.758574 52.027014 61.515102 51.86622 53.460938 C 51.691815 44.724996 61.871709 34.888331 70.606015 35.131203 C 72.13581 35.173743 73.682387 35.549532 75.184758 36.184647 z " /></g><rect
     style="fill:none;fill-opacity:0;stroke:#ffffff;stroke-width:6.04724409;stroke-linecap:square;stroke-linejoin:round;stroke-opacity:1;paint-order:markers stroke fill;stroke-dasharray:none"
     id="rect5"
     width="13.468694"
     height="364.03973"
     x="196.86845"
     y="15.002316" /></svg>