<?xml version="1.0" encoding="UTF-8" standalone="no"?><svg
   version="1.1"
   id="svg1"
   width="400"
   height="400"
   viewBox="0 0 400 400"
   xmlns="http://www.w3.org/2000/svg"
   xmlns:svg="http://www.w3.org/2000/svg"><defs
     id="defs1" /><sodipodi:namedview
     id="namedview1"
     pagecolor="#ffffff"
     bordercolor="#000000"
     borderopacity="0.25"
     showgrid="false" /><path
     id="path1"
     style="fill:#ffffff;stroke:#ffffff;stroke-width:3.77953;stroke-linecap:square;stroke-linejoin:round;paint-order:markers stroke fill;opacity:1;stroke-opacity:1;fill-opacity:1"
     d="M 199.64648 22.847656 C 198.34792 22.830627 197.01118 23.18201 195.87305 23.761719 C 194.06462 24.682847 192.8184 26.474899 191.5918 28.091797 C 189.12651 31.341526 187.56974 35.189532 185.53125 38.722656 C 182.43214 44.094061 180.02448 49.946759 176.15039 54.789062 C 172.97519 58.757811 169.04534 62.112958 164.99219 65.179688 C 161.29715 67.975464 157.22781 70.271277 153.10938 72.394531 C 148.99804 74.514119 144.31913 75.481634 140.36328 77.878906 C 139.12541 78.629064 137.62233 79.314193 136.99609 80.619141 C 136.06648 82.556269 138.38105 85.46612 136.94727 87.066406 C 136.03154 88.088485 134.01752 86.810725 132.85938 87.546875 C 131.93563 88.134034 131.44678 89.289147 131.12695 90.335938 C 128.50613 98.913922 130.53954 108.26709 130.11719 117.22656 C 129.75722 124.86261 129.0745 132.48281 128.81836 140.12305 C 128.61095 146.30909 131.79566 153.37255 128.62695 158.68945 C 126.73098 161.87077 121.92669 161.92964 118.91016 164.07812 C 115.13683 166.76564 111.73273 169.97974 108.56641 173.36133 C 104.92924 177.24578 101.38788 181.31917 98.707031 185.91602 C 96.837958 189.12093 95.623046 192.6837 94.472656 196.21094 C 93.157097 200.24462 91.903586 204.35452 91.443359 208.57227 C 90.91448 213.41918 91.065668 218.37214 91.779297 223.19531 C 92.463694 227.82091 93.298647 232.60435 95.53125 236.71289 C 97.228772 239.83675 101.65621 241.27051 102.60352 244.69727 C 102.74262 245.20043 102.54921 245.77006 102.31445 246.23633 C 100.16129 250.5129 95.577919 253.06342 92.548828 256.77148 C 89.277724 260.7758 85.793966 264.73632 83.505859 269.37305 C 81.207345 274.03087 79.892284 279.17104 78.984375 284.28516 C 78.147802 288.99743 77.870811 293.84425 78.166016 298.62109 C 78.474653 303.61528 79.562184 308.55603 80.859375 313.38867 C 82.214953 318.43883 83.840671 323.46411 86.152344 328.1543 C 87.973117 331.8485 90.269486 335.32535 92.837891 338.54492 C 95.538982 341.93081 98.603654 345.05561 101.92969 347.83008 C 105.55643 350.8554 109.43928 353.6584 113.66602 355.76562 C 118.3991 358.1253 123.54736 359.61234 128.67383 360.91211 C 138.06658 363.29355 147.69784 364.79997 157.34375 365.72266 C 164.51253 366.40839 171.74912 366.61603 178.94141 366.25195 C 185.07496 365.94146 191.20633 365.18599 197.2207 363.94336 C 203.31831 362.68353 209.84036 361.98024 215.16211 358.74805 C 216.3544 358.0239 218.40024 357.06874 218.04883 355.71875 C 217.7486 354.5654 215.76774 355.024 214.63281 354.66016 C 209.14774 352.90173 203.42 351.72397 198.23047 349.22461 C 193.57454 346.98224 188.92744 344.38064 185.24219 340.75781 C 181.48728 337.06651 178.52181 332.48958 176.39258 327.67383 C 175.29176 325.18406 174.79171 322.44133 174.46875 319.73828 C 174.04074 316.15607 177.0139 311.47094 174.46875 308.91406 C 169.54808 303.97071 160.44196 309.84484 153.54297 308.81836 C 148.84144 308.11883 144.08209 306.95558 139.88281 304.72852 C 136.00676 302.67288 132.38662 299.86407 129.68359 296.4082 C 127.71718 293.89412 126.44908 290.82557 125.5957 287.75 C 124.6952 284.5046 124.53714 281.06297 124.58594 277.69531 C 124.65266 273.0877 122.11928 265.77697 126.36523 263.98633 C 127.39942 263.55018 128.06871 265.47875 129.05859 266.00781 C 132.59627 267.8986 136.52165 269.02296 140.41211 270 C 148.83156 272.11443 157.49475 273.28117 166.14648 273.99219 C 175.65524 274.77365 185.23115 274.5705 194.76758 274.28125 C 200.66416 274.1024 206.56141 273.72172 212.41992 273.0293 C 216.89109 272.50085 221.36172 271.84839 225.74414 270.81641 C 230.10338 269.78989 234.39635 268.45031 238.58789 266.87305 C 241.95989 265.60418 245.27729 264.15587 248.44922 262.44727 C 251.34323 260.88838 254.28601 259.3075 256.77148 257.15625 C 258.37052 255.77224 258.8223 252.69418 260.9082 252.3457 C 263.38192 251.93243 265.33795 254.72227 267.40234 256.14648 C 269.67379 257.71354 272.02037 259.27392 273.84766 261.3418 C 275.72152 263.46238 277.59926 265.82016 278.32031 268.55664 C 278.93771 270.89973 278.64031 273.47453 278.0332 275.82031 C 277.46186 278.02787 276.26355 280.06354 274.95312 281.92969 C 273.0759 284.60298 270.6842 286.90594 268.21875 289.04883 C 265.85811 291.10062 261.32786 291.44982 260.57031 294.48438 C 260.39663 295.18009 261.16886 295.79059 261.5332 296.4082 C 262.79866 298.55338 264.80595 300.26614 265.76562 302.56445 C 266.75315 304.92947 267.26438 307.55488 267.20898 310.11719 C 267.14421 313.11505 266.14138 316.04445 265.14062 318.87109 C 264.19043 321.55494 262.92925 324.14336 261.4375 326.56836 C 258.98084 330.56191 255.86945 334.12063 252.875 337.72852 C 249.40868 341.90494 240.40203 344.66387 242.00391 349.84961 C 242.52041 351.52166 245.35805 350.97375 247.10352 351.09961 C 252.24512 351.47034 257.44792 350.65316 262.49609 349.60938 C 270.03402 348.05079 277.41881 345.60469 284.47852 342.53711 C 290.18626 340.05699 295.70282 337.03879 300.78516 333.44727 C 304.13453 331.08038 307.17418 328.26824 310.02148 325.31641 C 312.55286 322.6921 315.01283 319.94232 316.94727 316.85156 C 318.79323 313.90216 320.15122 310.65076 321.32422 307.375 C 322.50289 304.08341 323.53239 300.69328 323.9707 297.22461 C 324.52952 292.80225 324.49034 288.27465 323.92188 283.85352 C 323.43831 280.09274 322.42115 276.38602 321.08398 272.83789 C 319.56922 268.81855 317.67413 264.89698 315.26367 261.3418 C 312.61164 257.43034 309.40427 253.86465 305.88477 250.71094 C 301.59109 246.86351 296.83615 243.45391 291.74219 240.75391 C 286.53231 237.99247 280.39168 237.28678 275.19531 234.5 C 274.63846 234.20136 273.6785 234.02399 273.6543 233.39258 C 273.62376 232.59661 274.96823 232.46189 275.48242 231.85352 C 276.82797 230.26154 277.2213 227.97684 278.6582 226.4668 C 279.70357 225.36821 281.31872 224.96682 282.45703 223.96484 C 284.24941 222.38712 285.84655 220.54732 287.12305 218.5293 C 289.08386 215.42946 290.77552 212.05117 291.59766 208.47656 C 292.4571 204.73981 292.19934 200.80864 291.98242 196.98047 C 291.82104 194.1324 291.4295 191.27983 290.73242 188.51367 C 290.14493 186.18239 289.41554 183.84813 288.27734 181.73047 C 286.47066 178.36907 284.12737 175.25962 281.44727 172.54297 C 279.76033 170.83302 277.78626 169.39535 275.72266 168.16602 C 274.10721 167.20366 272.41491 166.25095 270.57617 165.85742 C 268.53789 165.42118 266.23634 166.68729 264.32422 165.85742 C 262.77366 165.18447 262.13059 163.26834 260.85938 162.1543 C 258.68095 160.24524 256.30415 158.5403 253.78906 157.10352 C 250.52925 155.24132 246.99265 153.89502 243.49414 152.5332 C 240.21491 151.25674 236.89189 150.0668 233.49023 149.16602 C 230.6632 148.41741 226.03877 150.16705 224.87891 147.48242 C 223.51861 144.33386 228.89217 141.87373 230.36328 138.77539 C 231.93783 135.45919 232.89217 131.8749 233.875 128.33789 C 235.12798 123.82868 236.05577 119.2314 236.9043 114.62891 C 237.69779 110.32497 237.79845 105.89425 238.82812 101.64062 C 239.21464 100.0439 239.12562 97.991397 240.41602 96.974609 C 241.37723 96.217211 242.84865 96.620212 244.07227 96.638672 C 251.71237 96.753918 259.20825 98.810164 266.82422 99.427734 C 274.45354 100.04639 282.11575 100.4363 289.76953 100.3418 C 295.98721 100.26501 302.21197 99.888313 308.38477 99.138672 C 315.33805 98.294248 322.46247 97.764342 329.06836 95.435547 C 331.80916 94.469325 334.80424 93.438071 336.7168 91.25 C 338.95479 88.689626 339.89003 85.092688 340.37305 81.726562 C 340.82092 78.605383 340.54343 75.308634 339.60352 72.298828 C 338.60993 69.117104 337.16356 65.770978 334.60156 63.638672 C 332.61358 61.984118 329.87522 61.079769 327.28906 61.042969 C 324.99736 61.010361 322.80383 62.144931 320.74805 63.158203 C 317.55261 64.733198 314.85363 67.161299 311.94531 69.21875 C 306.91301 72.778774 302.22065 76.837276 296.98438 80.089844 C 295.43081 81.054855 293.81297 81.932012 292.12695 82.640625 C 290.10753 83.489362 288.02052 84.227978 285.87305 84.660156 C 280.85642 85.669751 275.69302 85.897814 270.57617 85.958984 C 265.03454 86.025232 259.4955 85.495559 253.98047 84.949219 C 249.64788 84.520016 245.37021 83.632146 241.04102 83.169922 C 237.68317 82.811407 234.24215 81.696209 230.93945 82.400391 C 228.56778 82.906064 226.26452 84.155422 224.54297 85.863281 C 223.0349 87.359358 221.96404 89.378578 221.46484 91.443359 C 220.4508 95.637615 221.83761 100.06773 221.84961 104.38281 C 221.86814 111.02287 222.74083 117.80043 221.36719 124.29688 C 220.55223 128.15114 218.70489 131.74363 216.8457 135.2168 C 214.19497 140.16864 212.12817 146.08136 207.4668 149.21484 C 205.68694 150.4113 203.18665 149.80053 201.16406 150.51367 C 198.71583 151.37689 196.82564 153.86124 194.23828 154.07227 C 189.60384 154.45026 185.5357 150.62316 180.96094 149.79102 C 174.37507 148.59307 167.58061 148.37238 160.90234 148.83008 C 155.67849 149.1881 149.16185 155.42085 145.46289 151.71484 C 142.3505 148.59652 147.22705 143.08009 147.91602 138.72852 C 148.74516 133.4916 149.59359 128.24033 149.93555 122.94922 C 150.53637 113.65275 156.14361 101.99116 149.98438 95.001953 C 149.72796 94.710996 149.07724 95.156273 148.83008 94.857422 C 148.51264 94.47359 148.71142 93.816792 148.92578 93.367188 C 149.04786 93.11113 149.28788 92.895625 149.55078 92.789062 C 151.34937 92.060016 153.48704 93.11013 155.37109 92.644531 C 160.73828 91.318156 165.53032 88.18995 170.23438 85.285156 C 175.465 82.055199 180.25466 78.135921 184.95508 74.173828 C 190.77481 69.268245 196.36121 64.064923 201.59766 58.541016 C 204.91681 55.039656 208.78732 51.799357 210.92969 47.476562 C 211.81241 45.695451 212.20292 43.643934 212.22852 41.65625 C 212.28433 37.326524 212.12266 32.516868 209.72656 28.910156 C 207.77018 25.965327 204.37385 23.764694 200.92383 22.992188 C 200.50836 22.899159 200.07934 22.853333 199.64648 22.847656 z M 266.87109 175.72852 C 269.2757 175.71755 271.75402 176.5503 273.79883 177.92969 C 276.471 179.73229 278.53615 182.70256 280 185.79492 C 281.82568 189.65161 282.84477 194.11646 282.91406 198.48438 C 282.97696 202.44918 282.2405 206.57063 280.63477 210.10156 C 279.14825 213.37034 276.85489 216.32359 274.11523 218.32227 C 271.96861 219.88831 269.35626 220.7888 266.80078 220.94336 C 264.94618 221.05554 262.99379 220.64734 261.3418 219.69336 C 258.36156 217.97236 255.7344 215.21246 253.97461 212.00781 C 251.91598 208.25895 250.85798 203.71959 250.6875 199.31836 C 250.55743 195.96052 251.32308 192.54663 252.4375 189.42773 C 253.68689 185.93107 255.31434 182.36958 257.84375 179.89648 C 260.05684 177.73265 262.92804 176.10294 265.84766 175.78516 C 266.18676 175.74825 266.52758 175.73008 266.87109 175.72852 z M 128.66211 183.13281 C 131.7482 183.12029 134.92646 184.07141 137.55078 185.64648 C 140.98025 187.7048 143.63105 191.09394 145.50977 194.625 C 147.85285 199.02882 149.16302 204.12767 149.25195 209.11523 C 149.33265 213.64251 148.38698 218.34901 146.32617 222.38086 C 144.41836 226.11337 141.47507 229.48731 137.95898 231.76953 C 135.20399 233.55774 131.85198 234.58523 128.57227 234.76172 C 126.19206 234.88981 123.68463 234.4233 121.56445 233.33398 C 117.7396 231.36883 114.3679 228.21787 112.10938 224.55859 C 109.46731 220.2779 108.10941 215.09398 107.89062 210.06836 C 107.7237 206.23416 108.70647 202.33676 110.13672 198.77539 C 111.7402 194.78268 113.82797 190.71458 117.07422 187.89062 C 119.91451 185.41983 123.60061 183.56013 127.34766 183.19727 C 127.78286 183.15512 128.22124 183.1346 128.66211 183.13281 z " /><g
     id="g1"><g
       id="g3" /></g></svg>